<svg width="115" height="31" viewBox="0 0 115 31" fill="none" xmlns="http://www.w3.org/2000/svg">
<path d="M5.8608 14.6676V24H0.651279V2.18182H5.69034V10.6406H5.87145C6.24077 9.6321 6.84446 8.84375 7.68253 8.27557C8.5277 7.70739 9.56108 7.4233 10.7827 7.4233C11.9332 7.4233 12.9347 7.67898 13.7869 8.19034C14.6392 8.6946 15.2997 9.40838 15.7685 10.3317C16.2443 11.255 16.4787 12.3345 16.4716 13.5703V24H11.2621V14.593C11.2692 13.6839 11.0419 12.9737 10.5803 12.4624C10.1186 11.951 9.46875 11.6953 8.63068 11.6953C8.08381 11.6953 7.60085 11.8161 7.18182 12.0575C6.76989 12.2919 6.44673 12.6293 6.21236 13.0696C5.98509 13.5099 5.8679 14.0426 5.8608 14.6676ZM27.3727 24.3089C25.661 24.3089 24.1838 23.9716 22.9409 23.2969C21.7051 22.6151 20.7534 21.6456 20.0858 20.3885C19.4252 19.1243 19.095 17.6222 19.095 15.8821C19.095 14.1918 19.4288 12.7145 20.0964 11.4503C20.764 10.179 21.7051 9.19176 22.9196 8.48864C24.1341 7.77841 25.5652 7.4233 27.2129 7.4233C28.3777 7.4233 29.443 7.6044 30.4089 7.96662C31.3748 8.32883 32.2093 8.86506 32.9125 9.57528C33.6156 10.2855 34.1625 11.1626 34.5531 12.2067C34.9437 13.2436 35.139 14.4332 35.139 15.7756V17.0753H20.9167V14.0497H30.2917C30.2846 13.4957 30.1532 13.0021 29.8976 12.5689C29.6419 12.1357 29.2903 11.7983 28.8429 11.5568C28.4025 11.3082 27.8947 11.1839 27.3194 11.1839C26.737 11.1839 26.215 11.3153 25.7534 11.5781C25.2917 11.8338 24.926 12.1854 24.6561 12.6328C24.3862 13.0732 24.2441 13.5739 24.2299 14.1349V17.2138C24.2299 17.8814 24.3613 18.4673 24.6241 18.9716C24.8869 19.4687 25.2598 19.8558 25.7427 20.1328C26.2257 20.4098 26.801 20.5483 27.4686 20.5483C27.9302 20.5483 28.3493 20.4844 28.7257 20.3565C29.1021 20.2287 29.4252 20.0405 29.6951 19.7919C29.965 19.5433 30.1674 19.2379 30.3024 18.8757L35.0858 19.0142C34.8869 20.0866 34.4501 21.0206 33.7754 21.8161C33.1078 22.6044 32.2306 23.2187 31.144 23.6591C30.0574 24.0923 28.8002 24.3089 27.3727 24.3089ZM40.5456 30.1364C39.9206 30.1364 39.3311 30.0866 38.7772 29.9872C38.2232 29.8949 37.7473 29.7706 37.3496 29.6143L38.5002 25.8324C39.0115 26.0028 39.4732 26.1023 39.8851 26.1307C40.3042 26.1591 40.6628 26.0916 40.9611 25.9283C41.2665 25.772 41.5009 25.4915 41.6642 25.0866L41.8667 24.5966L36.0499 7.63636H41.5044L44.5194 19.3125H44.6898L47.7473 7.63636H53.2338L47.0655 25.5661C46.7672 26.4609 46.3446 27.2493 45.7978 27.9311C45.258 28.62 44.5584 29.1598 43.699 29.5504C42.8468 29.9411 41.7956 30.1364 40.5456 30.1364ZM60.4409 2.18182V24H55.2314V2.18182H60.4409ZM63.7567 24V7.63636H68.9663V24H63.7567ZM66.3668 5.7294C65.6353 5.7294 65.0067 5.48793 64.4812 5.00497C63.9556 4.51491 63.6928 3.92543 63.6928 3.23651C63.6928 2.55469 63.9556 1.9723 64.4812 1.48935C65.0067 0.999289 65.6353 0.75426 66.3668 0.75426C67.1055 0.75426 67.734 0.999289 68.2525 1.48935C68.7781 1.9723 69.0408 2.55469 69.0408 3.23651C69.0408 3.92543 68.7781 4.51491 68.2525 5.00497C67.734 5.48793 67.1055 5.7294 66.3668 5.7294ZM77.4917 14.6676V24H72.2821V7.63636H77.236V10.6406H77.4171C77.7793 9.6392 78.3972 8.8544 79.2708 8.28622C80.1444 7.71094 81.1848 7.4233 82.3922 7.4233C83.5428 7.4233 84.5407 7.68253 85.3858 8.20099C86.2381 8.71236 86.8986 9.42969 87.3674 10.353C87.8432 11.2692 88.0776 12.3416 88.0705 13.5703V24H82.861V14.593C82.8681 13.6839 82.6373 12.9737 82.1685 12.4624C81.7069 11.951 81.0641 11.6953 80.2402 11.6953C79.6934 11.6953 79.2104 11.8161 78.7914 12.0575C78.3794 12.2919 78.0598 12.6293 77.8326 13.0696C77.6124 13.5099 77.4988 14.0426 77.4917 14.6676ZM95.994 19.7067L96.0153 13.4957H96.7397L101.342 7.63636H107.244L100.404 16.0312H99.0302L95.994 19.7067ZM91.2958 24V2.18182H96.5053V24H91.2958ZM101.459 24L97.1765 17.2031L100.607 13.5064L107.478 24H101.459ZM112.038 24.3089C111.271 24.3089 110.614 24.0391 110.067 23.4993C109.527 22.9595 109.261 22.3061 109.268 21.5391C109.261 20.7862 109.527 20.1435 110.067 19.6108C110.614 19.071 111.271 18.8011 112.038 18.8011C112.762 18.8011 113.402 19.071 113.956 19.6108C114.517 20.1435 114.801 20.7862 114.808 21.5391C114.801 22.0504 114.666 22.5156 114.403 22.9347C114.147 23.3537 113.81 23.6875 113.391 23.9361C112.979 24.1847 112.528 24.3089 112.038 24.3089Z" fill="#152544"/>
</svg>
